<svg width="206" height="365" viewBox="0 0 206 365" fill="none" xmlns="http://www.w3.org/2000/svg">
<rect width="206" height="365" fill="#FC6565" fill-opacity="0.04"/>
<rect id="first_layer" width="205.471" height="363.735" rx="20" transform="matrix(0.999999 -0.00152856 0.00145475 0.999999 0 0.314087)" fill="#C4C4C4"/>
<rect id="second_layer" x="9" y="8" width="188" height="348" rx="20" fill="#585353"/>
<g id="third_layer">
<g id="button">
<ellipse id="Ellipse 1" cx="106.045" cy="323.483" rx="20.5992" ry="21.1153" fill="#1C1919"/>
<ellipse id="Ellipse 2" cx="106.045" cy="323.483" rx="17.3033" ry="17.3146" fill="#4E4848"/>
</g>
<rect id="Rectangle 3" x="22" y="64.1868" width="161.498" height="101.354" rx="10" fill="#FDE7E7"/>
<rect id="Rectangle 4" x="22" y="206.504" width="71.6852" height="75.1705" rx="10" fill="#FDE7E7"/>
<rect id="Rectangle 5" x="111.812" y="206.504" width="71.6852" height="75.1705" rx="10" fill="#FDE7E7"/>
<g id="camera">
<ellipse id="Ellipse 3" cx="174.434" cy="28.2907" rx="9.06364" ry="9.29074" fill="#272525"/>
<ellipse id="Ellipse 4" opacity="0.6" cx="174.228" cy="28.2907" rx="6.38575" ry="6.7569" fill="#C4C4C4" fill-opacity="0.26"/>
</g>
</g>
<g id="fourth_layer">
<g id="text">
<path id="Vector 2" d="M48.6141 124.963L57.4517 118.536C61.9674 115.252 68.1018 115.318 72.5466 118.697L74.1558 119.92C78.0139 122.853 83.4049 122.66 87.0427 119.457L87.939 118.668C91.535 115.503 96.9876 115.737 100.299 119.199V119.199C103.441 122.482 108.546 122.885 112.163 120.135L115.031 117.955C118.741 115.135 123.977 115.548 127.198 118.916V118.916C130.474 122.34 135.822 122.702 139.529 119.749L140.49 118.983C144.742 115.597 150.875 116.012 154.632 119.939L159.438 124.963" stroke="black"/>
<path id="Vector 3" d="M40.3744 102.754L50.5847 96.3115C55.9062 92.9536 62.7007 93.0224 67.9532 96.4874L69.8831 97.7605C74.4159 100.751 80.3443 100.546 84.6596 97.2494L85.7857 96.3893C90.028 93.1488 95.9793 93.4001 99.9333 96.9867V96.9867C103.675 100.381 109.241 100.809 113.458 98.0271L117.073 95.6421C121.396 92.7903 127.102 93.2292 130.938 96.7087V96.7087C134.841 100.249 140.67 100.635 145.005 97.6383L146.254 96.7751C151.321 93.2731 158.133 93.7233 162.695 97.8616L168.089 102.754" stroke="black"/>
</g>
<path id="aeroplace" d="M78.7529 237.09C78.3683 237.09 77.08 237.101 76.7169 237.122L69.376 237.303C69.3379 237.305 69.2998 237.298 69.2661 237.281C69.2323 237.264 69.2042 237.238 69.1849 237.207L54.5279 220.401C54.439 220.29 54.3256 220.199 54.1956 220.133C54.0655 220.068 53.9219 220.03 53.7746 220.022H50.7331L58.9902 237.197C59.0099 237.236 59.0184 237.279 59.0149 237.323C59.0114 237.366 58.996 237.408 58.9702 237.444C58.9444 237.48 58.9091 237.509 58.8678 237.528C58.8265 237.548 58.7806 237.556 58.7345 237.554L44.9701 237.746C44.8268 237.75 44.6846 237.722 44.5549 237.665C44.4252 237.607 44.3117 237.522 44.2235 237.415L40.0384 232.615C39.6991 232.199 39.0634 231.975 38.5103 231.975H36.377C36.2311 231.975 36.2526 232.104 36.2922 232.234L38.5363 239.853C38.7059 240.261 38.7059 240.714 38.5363 241.122L36.2899 248.718C36.2232 248.926 36.2311 249.038 36.4901 249.038H38.5171C39.4378 249.038 39.5634 248.925 40.0339 248.366L44.2982 243.49C44.3871 243.385 44.5008 243.3 44.6303 243.242C44.7598 243.185 44.9017 243.157 45.0447 243.16L58.6949 243.448C58.7446 243.449 58.7933 243.461 58.8367 243.484C58.8802 243.507 58.917 243.54 58.9441 243.579C58.9712 243.618 58.9877 243.663 58.9922 243.71C58.9966 243.756 58.989 243.804 58.9698 243.847L50.7331 260.985H53.7463C53.8933 260.977 54.0366 260.939 54.1665 260.874C54.2964 260.809 54.4096 260.717 54.4985 260.607L69.186 243.81C69.2301 243.746 69.4122 243.714 69.4903 243.714L76.718 243.896C77.0913 243.917 78.3683 243.928 78.754 243.928C83.7615 243.928 86.9286 242.63 86.9286 240.504C86.9286 238.377 83.775 237.09 78.7529 237.09Z" stroke="black" stroke-width="2" stroke-linecap="round" stroke-linejoin="round"/>
<g id="aperture">
<path id="Vector" d="M169.325 240.489C169.325 229.289 160.099 220.202 148.726 220.202C137.354 220.202 128.127 229.289 128.127 240.489C128.127 251.689 137.354 260.775 148.726 260.775C160.099 260.775 169.325 251.689 169.325 240.489Z" stroke="black" stroke-width="2" stroke-miterlimit="10"/>
<path id="Vector_2" d="M159.884 223.434V244.715" stroke="black" stroke-width="2" stroke-linecap="round" stroke-linejoin="round"/>
<path id="Vector_3" d="M168.803 235.932L153.018 251.477" stroke="black" stroke-width="2" stroke-linecap="round" stroke-linejoin="round"/>
<path id="Vector_4" d="M166.043 251.477H144.435" stroke="black" stroke-width="2" stroke-linecap="round" stroke-linejoin="round"/>
<path id="Vector_5" d="M153.354 260.261L137.904 245.046" stroke="black" stroke-width="2" stroke-linecap="round" stroke-linejoin="round"/>
<path id="Vector_6" d="M137.568 257.394V236.262" stroke="black" stroke-width="2" stroke-linecap="round" stroke-linejoin="round"/>
<path id="Vector_7" d="M128.649 245.046L144.099 229.831" stroke="black" stroke-width="2" stroke-linecap="round" stroke-linejoin="round"/>
<path id="Vector_8" d="M131.409 229.5H152.159" stroke="black" stroke-width="2" stroke-linecap="round" stroke-linejoin="round"/>
<path id="Vector_9" d="M144.099 220.717L159.884 236.262" stroke="black" stroke-width="2" stroke-linecap="round" stroke-linejoin="round"/>
</g>
</g>
</svg>
